<svg xmlns="http://www.w3.org/2000/svg" width="25.125" height="25.577" viewBox="0 0 25.125 25.577">
  <path id="Icon-SearchStocks" d="M24.784,22.113l-4.893-4.98a1.167,1.167,0,0,0-.834-.35h-.8a10.456,10.456,0,0,0,2.159-6.394A10.3,10.3,0,0,0,10.208,0,10.3,10.3,0,0,0,0,10.39a10.3,10.3,0,0,0,10.208,10.39,10.279,10.279,0,0,0,5.6-1.7c.065-.035.378-.257.677-.5V19.4a1.209,1.209,0,0,0,.344.849l4.893,4.98a1.159,1.159,0,0,0,1.664,0l1.389-1.414a1.22,1.22,0,0,0,0-1.7Zm-14.576-5.33A6.335,6.335,0,0,1,3.926,10.39,6.335,6.335,0,0,1,10.208,4,6.335,6.335,0,0,1,16.49,10.39a6.537,6.537,0,0,1-3.178,5.561A5.9,5.9,0,0,1,10.208,16.783Z" fill="#dee1e5"/>
</svg>
